<svg width="197" height="28" viewBox="0 0 197 28" fill="none" xmlns="http://www.w3.org/2000/svg">
<g clip-path="url(#clip0)">
<path fill-rule="evenodd" clip-rule="evenodd" d="M0.226562 7.90918L21.8713 7.90918V24.9229C21.8713 26.309 20.7477 27.4327 19.3615 27.4327H2.73634C1.35023 27.4327 0.226562 26.309 0.226562 24.9229V7.90918ZM2.04612 9.72874V24.9229C2.04612 25.3041 2.35514 25.6131 2.73634 25.6131H19.3615C19.7427 25.6131 20.0518 25.3041 20.0518 24.9229V9.72874L2.04612 9.72874Z" fill="black"/>
<path fill-rule="evenodd" clip-rule="evenodd" d="M11.0495 0.760864L11.084 0.762175C13.2156 0.843122 14.7624 1.43843 15.7787 2.48003C16.7937 3.52027 17.1459 4.86875 17.1769 6.17602L17.1772 6.18681V8.81899H15.3576V6.20872C15.3316 5.18572 15.0612 4.35013 14.4764 3.75075C13.8946 3.15444 12.8694 2.65663 11.0495 2.58179C9.22674 2.6567 8.18675 3.15292 7.5985 3.74951C7.00934 4.34703 6.74144 5.17925 6.74144 6.1976V8.81899H4.92188V6.1976C4.92188 4.86853 5.27636 3.51304 6.30285 2.47198C7.32656 1.43375 8.88608 0.84302 11.015 0.762175L11.0495 0.760864Z" fill="black"/>
<path d="M40.4909 23.9881C38.7136 23.9881 37.2179 23.5921 36.0037 22.8003C34.7895 22.0084 33.9536 20.9262 33.4961 19.5536L35.555 18.3658C35.9069 19.3864 36.4964 20.1871 37.3235 20.7678C38.1681 21.3485 39.2327 21.6389 40.5173 21.6389C41.3796 21.6389 42.1011 21.4981 42.6818 21.2165C43.2801 20.9174 43.72 20.539 44.0016 20.0815C44.3007 19.6064 44.4503 19.1049 44.4503 18.577C44.4503 17.8203 44.0895 17.2044 43.3681 16.7293C42.6466 16.2542 41.5116 15.779 39.963 15.3039C38.7312 14.9344 37.7194 14.5648 36.9275 14.1953C36.1533 13.8258 35.511 13.3154 35.0006 12.6643C34.5079 11.9957 34.2616 11.1334 34.2616 10.0776C34.2616 9.03934 34.5167 8.12429 35.027 7.33242C35.555 6.54055 36.2588 5.93345 37.1387 5.51112C38.0361 5.08879 39.0128 4.87762 40.0686 4.87762C41.5292 4.87762 42.7962 5.23836 43.8696 5.95985C44.943 6.66373 45.7613 7.63157 46.3244 8.86337L44.2391 10.0248C43.8696 9.14492 43.3329 8.46743 42.629 7.99231C41.9251 7.49959 41.0716 7.25323 40.0686 7.25323C39.0304 7.25323 38.2033 7.53479 37.5874 8.09789C36.9715 8.6434 36.6636 9.3033 36.6636 10.0776C36.6636 10.6407 36.8131 11.0982 37.1123 11.4501C37.429 11.8021 37.8514 12.1012 38.3793 12.3476C38.9248 12.5764 39.7255 12.8579 40.7813 13.1923C42.1187 13.6146 43.1921 14.0281 44.0016 14.4328C44.811 14.82 45.4885 15.3567 46.034 16.043C46.5795 16.7293 46.8523 17.6091 46.8523 18.6825C46.8523 19.756 46.5795 20.6974 46.034 21.5069C45.4885 22.2988 44.7318 22.9147 43.764 23.3546C42.8138 23.7769 41.7227 23.9881 40.4909 23.9881Z" fill="#0A0A0A"/>
<path d="M60.1015 23.6713H57.8314V15.8318C57.8314 14.5472 57.4707 13.6322 56.7492 13.0867C56.0453 12.5236 55.2271 12.242 54.2944 12.242C53.5729 12.242 52.8955 12.4532 52.262 12.8755C51.6461 13.2978 51.2237 13.9753 50.995 14.908V23.6713H48.7249V5.19437H50.995V11.8989C51.4525 11.3886 52.0068 10.9838 52.6579 10.6847C53.309 10.3679 54.0041 10.2095 54.7432 10.2095C55.5174 10.2095 56.3093 10.3767 57.1188 10.7111C57.9282 11.0278 58.6233 11.5997 59.204 12.4268C59.8023 13.2538 60.1015 14.3713 60.1015 15.779V23.6713Z" fill="#0A0A0A"/>
<path d="M68.664 23.9881C67.4146 23.9881 66.262 23.6801 65.2061 23.0642C64.1503 22.4483 63.3057 21.6125 62.6722 20.5566C62.0563 19.4832 61.7483 18.3218 61.7483 17.0724C61.7483 15.823 62.0563 14.6704 62.6722 13.6146C63.3057 12.5588 64.1503 11.7229 65.2061 11.107C66.262 10.4911 67.4146 10.1832 68.664 10.1832C69.9134 10.1832 71.066 10.4911 72.1218 11.107C73.1776 11.7229 74.0135 12.5588 74.6294 13.6146C75.2629 14.6704 75.5796 15.823 75.5796 17.0724C75.5796 18.3218 75.2629 19.4832 74.6294 20.5566C74.0135 21.6125 73.1776 22.4483 72.1218 23.0642C71.066 23.6801 69.9134 23.9881 68.664 23.9881ZM68.664 21.7181C69.5086 21.7181 70.2829 21.5157 70.9868 21.1109C71.6907 20.6886 72.245 20.1255 72.6497 19.4216C73.072 18.7001 73.2832 17.9171 73.2832 17.0724C73.2832 16.2278 73.072 15.4535 72.6497 14.7496C72.245 14.0457 71.6907 13.4914 70.9868 13.0867C70.2829 12.6643 69.5086 12.4532 68.664 12.4532C67.8193 12.4532 67.0362 12.6643 66.3148 13.0867C65.6109 13.4914 65.0478 14.0457 64.6254 14.7496C64.2207 15.4535 64.0183 16.2278 64.0183 17.0724C64.0183 17.9171 64.2207 18.7001 64.6254 19.4216C65.0478 20.1255 65.6109 20.6886 66.3148 21.1109C67.0362 21.5157 67.8193 21.7181 68.664 21.7181Z" fill="#0A0A0A"/>
<path d="M84.7496 10.1568C86.0342 10.1568 87.178 10.4647 88.1811 11.0806C89.2017 11.6789 89.9936 12.506 90.5567 13.5618C91.1198 14.6176 91.4013 15.7878 91.4013 17.0724C91.4013 18.3746 91.1198 19.5536 90.5567 20.6094C89.9936 21.6477 89.2105 22.4747 88.2075 23.0906C87.2044 23.6889 86.0518 23.9881 84.7496 23.9881C83.7994 23.9881 82.8931 23.7857 82.0309 23.381C81.1686 22.9762 80.4296 22.4131 79.8137 21.6917V28.9505H77.5436V10.4735H79.8137V12.4532C80.4296 11.7317 81.1686 11.1686 82.0309 10.7639C82.8931 10.3591 83.7994 10.1568 84.7496 10.1568ZM84.5121 21.7708C85.3743 21.7708 86.1574 21.5685 86.8613 21.1637C87.5652 20.759 88.1195 20.1959 88.5242 19.4744C88.929 18.7529 89.1313 17.9523 89.1313 17.0724C89.1313 16.175 88.929 15.3743 88.5242 14.6704C88.1195 13.9489 87.5652 13.3858 86.8613 12.9811C86.1574 12.5588 85.3743 12.3476 84.5121 12.3476C83.6498 12.3476 82.858 12.5588 82.1365 12.9811C81.415 13.3858 80.8431 13.9489 80.4208 14.6704C80.016 15.3919 79.8137 16.2014 79.8137 17.0988C79.8137 17.9787 80.016 18.7793 80.4208 19.5008C80.8431 20.2047 81.415 20.759 82.1365 21.1637C82.858 21.5685 83.6498 21.7708 84.5121 21.7708Z" fill="#0A0A0A"/>
<path d="M105.762 23.6713H102.885L98.503 18.0754L96.2594 20.5302V23.6713H93.9894V5.19437H96.2594V17.2044L102.383 10.4735H105.524L100.087 16.3861L105.762 23.6713Z" fill="#0A0A0A"/>
<path d="M112.64 10.1568C113.924 10.1568 115.068 10.4735 116.071 11.107C117.074 11.7229 117.848 12.5676 118.394 13.641C118.957 14.6968 119.238 15.8494 119.238 17.0988C119.238 17.2396 119.23 17.398 119.212 17.5739C119.194 17.7323 119.177 17.8643 119.159 17.9699H108.047C108.223 19.1489 108.733 20.1167 109.578 20.8734C110.44 21.6125 111.531 21.982 112.851 21.982C113.66 21.982 114.426 21.7972 115.147 21.4277C115.886 21.0582 116.432 20.6006 116.784 20.0551L118.579 21.1109C117.998 22.026 117.206 22.7387 116.203 23.249C115.218 23.7417 114.091 23.9881 112.824 23.9881C111.434 23.9881 110.202 23.6889 109.129 23.0906C108.055 22.4923 107.22 21.6741 106.621 20.6358C106.023 19.58 105.724 18.3922 105.724 17.0724C105.724 15.7702 106.014 14.6 106.595 13.5618C107.193 12.506 108.011 11.6789 109.05 11.0806C110.106 10.4647 111.302 10.1568 112.64 10.1568ZM117.074 16.1222C116.898 14.8904 116.423 13.9225 115.649 13.2186C114.874 12.5148 113.871 12.1628 112.64 12.1628C111.777 12.1628 110.994 12.3476 110.29 12.7171C109.586 13.0867 109.032 13.5794 108.627 14.1953C108.223 14.7936 108.011 15.4359 107.994 16.1222H117.074Z" fill="#0A0A0A"/>
<path d="M127.204 10.1568C128.488 10.1568 129.632 10.4735 130.635 11.107C131.638 11.7229 132.412 12.5676 132.958 13.641C133.521 14.6968 133.802 15.8494 133.802 17.0988C133.802 17.2396 133.794 17.398 133.776 17.5739C133.758 17.7323 133.741 17.8643 133.723 17.9699H122.611C122.787 19.1489 123.297 20.1167 124.142 20.8734C125.004 21.6125 126.095 21.982 127.415 21.982C128.224 21.982 128.99 21.7972 129.711 21.4277C130.45 21.0582 130.996 20.6006 131.348 20.0551L133.143 21.1109C132.562 22.026 131.77 22.7387 130.767 23.249C129.782 23.7417 128.655 23.9881 127.388 23.9881C125.998 23.9881 124.766 23.6889 123.693 23.0906C122.619 22.4923 121.784 21.6741 121.185 20.6358C120.587 19.58 120.288 18.3922 120.288 17.0724C120.288 15.7702 120.578 14.6 121.159 13.5618C121.757 12.506 122.576 11.6789 123.614 11.0806C124.67 10.4647 125.866 10.1568 127.204 10.1568ZM131.638 16.1222C131.462 14.8904 130.987 13.9225 130.213 13.2186C129.438 12.5148 128.435 12.1628 127.204 12.1628C126.341 12.1628 125.558 12.3476 124.854 12.7171C124.15 13.0867 123.596 13.5794 123.191 14.1953C122.787 14.7936 122.575 15.4359 122.558 16.1222H131.638Z" fill="#0A0A0A"/>
<path d="M143.418 10.1568C144.703 10.1568 145.847 10.4647 146.85 11.0806C147.87 11.6789 148.662 12.506 149.225 13.5618C149.788 14.6176 150.07 15.7878 150.07 17.0724C150.07 18.3746 149.788 19.5536 149.225 20.6094C148.662 21.6477 147.879 22.4747 146.876 23.0906C145.873 23.6889 144.72 23.9881 143.418 23.9881C142.468 23.9881 141.562 23.7857 140.699 23.381C139.837 22.9762 139.098 22.4131 138.482 21.6917V28.9505H136.212V10.4735H138.482V12.4532C139.098 11.7317 139.837 11.1686 140.699 10.7639C141.562 10.3591 142.468 10.1568 143.418 10.1568ZM143.181 21.7708C144.043 21.7708 144.826 21.5685 145.53 21.1637C146.234 20.759 146.788 20.1959 147.193 19.4744C147.597 18.7529 147.8 17.9523 147.8 17.0724C147.8 16.175 147.597 15.3743 147.193 14.6704C146.788 13.9489 146.234 13.3858 145.53 12.9811C144.826 12.5588 144.043 12.3476 143.181 12.3476C142.318 12.3476 141.526 12.5588 140.805 12.9811C140.083 13.3858 139.512 13.9489 139.089 14.6704C138.684 15.3919 138.482 16.2014 138.482 17.0988C138.482 17.9787 138.684 18.7793 139.089 19.5008C139.512 20.2047 140.083 20.759 140.805 21.1637C141.526 21.5685 142.318 21.7708 143.181 21.7708Z" fill="#0A0A0A"/>
<path d="M158.213 10.1568C159.498 10.1568 160.642 10.4735 161.645 11.107C162.648 11.7229 163.422 12.5676 163.968 13.641C164.531 14.6968 164.812 15.8494 164.812 17.0988C164.812 17.2396 164.803 17.398 164.786 17.5739C164.768 17.7323 164.751 17.8643 164.733 17.9699H153.62C153.796 19.1489 154.307 20.1167 155.151 20.8734C156.014 21.6125 157.105 21.982 158.424 21.982C159.234 21.982 159.999 21.7972 160.721 21.4277C161.46 21.0582 162.005 20.6006 162.357 20.0551L164.152 21.1109C163.572 22.026 162.78 22.7387 161.777 23.249C160.791 23.7417 159.665 23.9881 158.398 23.9881C157.008 23.9881 155.776 23.6889 154.703 23.0906C153.629 22.4923 152.793 21.6741 152.195 20.6358C151.597 19.58 151.298 18.3922 151.298 17.0724C151.298 15.7702 151.588 14.6 152.169 13.5618C152.767 12.506 153.585 11.6789 154.623 11.0806C155.679 10.4647 156.876 10.1568 158.213 10.1568ZM162.648 16.1222C162.472 14.8904 161.997 13.9225 161.222 13.2186C160.448 12.5148 159.445 12.1628 158.213 12.1628C157.351 12.1628 156.568 12.3476 155.864 12.7171C155.16 13.0867 154.606 13.5794 154.201 14.1953C153.796 14.7936 153.585 15.4359 153.568 16.1222H162.648Z" fill="#0A0A0A"/>
<path d="M173.173 10.1832C173.384 10.1832 173.543 10.1919 173.648 10.2095L173.464 12.374C173.252 12.3388 173.085 12.3212 172.962 12.3212C171.836 12.3212 170.886 12.6643 170.111 13.3506C169.355 14.0369 168.976 15.0312 168.976 16.3333V23.6713H166.706V10.4735H168.976V12.7435C169.275 12.022 169.786 11.4149 170.507 10.9222C171.246 10.4295 172.135 10.1832 173.173 10.1832Z" fill="#0A0A0A"/>
<path d="M190.12 14.3273L196.165 23.6713H193.288L188.484 16.2278L183.653 23.6713H180.75L186.821 14.3273L180.882 5.19437H183.785L188.484 12.4532L193.156 5.19437H196.033L190.12 14.3273Z" fill="#0A0A0A"/>
</g>
<defs>
<clipPath id="clip0">
<rect width="197" height="28" fill="white"/>
</clipPath>
</defs>
</svg>
